<svg width="23" height="24" viewBox="0 0 23 24" fill="none" xmlns="http://www.w3.org/2000/svg">
<path d="M11.1416 2.98291H7.69573C4.86181 2.98291 3.08496 5.13846 3.08496 8.1901V16.4222C3.08496 19.4738 4.85351 21.6294 7.69573 21.6294H15.8279C18.6711 21.6294 20.4396 19.4738 20.4396 16.4222V12.4339" stroke="black" stroke-width="1.5" stroke-linecap="round" stroke-linejoin="round"/>
<path fill-rule="evenodd" clip-rule="evenodd" d="M8.68601 11.0348L15.5731 3.63545C16.4311 2.71461 17.8218 2.71461 18.6798 3.63545L19.8014 4.84046C20.6594 5.76229 20.6594 7.25741 19.8014 8.17825L12.8811 15.6133C12.506 16.0163 11.9973 16.243 11.4665 16.243H8.01416L8.10079 12.5002C8.11369 11.9497 8.3229 11.4249 8.68601 11.0348Z" stroke="black" stroke-width="1.5" stroke-linecap="round" stroke-linejoin="round"/>
<path d="M14.5264 4.77881L18.7344 9.29982" stroke="black" stroke-width="1.5" stroke-linecap="round" stroke-linejoin="round"/>
</svg>
